<?xml version="1.0" standalone="no"?>
<!DOCTYPE svg PUBLIC "-//W3C//DTD SVG 20010904//EN"
 "http://www.w3.org/TR/2001/REC-SVG-20010904/DTD/svg10.dtd">
<svg version="1.0" xmlns="http://www.w3.org/2000/svg"
 width="260.000000pt" height="260.000000pt" viewBox="0 0 260.000000 260.000000"
 preserveAspectRatio="xMidYMid meet">
<metadata>
Created by potrace 1.14, written by Peter Selinger 2001-2017
</metadata>
<g transform="translate(0.000000,260.000000) scale(0.100000,-0.100000)"
fill="#000000" stroke="none">
<path d="M2290 2579 c-100 -30 -100 -30 -190 -71 -87 -39 -230 -121 -317 -181
l-71 -49 -64 21 c-124 41 -219 55 -353 55 -221 0 -410 -59 -599 -186 -58 -39
-246 -221 -246 -238 0 -5 -6 -15 -13 -22 -32 -33 -103 -168 -134 -253 -20 -56
-44 -161 -51 -220 -11 -101 -4 -300 12 -345 3 -8 8 -28 10 -45 3 -16 15 -57
27 -91 l22 -61 -50 -74 c-177 -264 -275 -503 -269 -651 4 -82 21 -112 87 -146
85 -45 235 -14 444 89 130 65 149 75 273 156 l83 55 82 -25 c209 -64 338 -68
585 -23 94 18 286 110 387 186 52 40 186 182 225 239 89 133 162 322 177 466
20 175 2 327 -57 506 -12 35 -11 39 27 95 102 151 210 356 247 470 57 174 39
299 -49 347 -35 19 -155 17 -225 -4z m-19 -315 c29 -35 -27 -200 -103 -306
l-19 -28 -26 33 c-47 58 -97 109 -145 147 -35 28 -44 41 -35 48 34 29 150 87
211 107 71 23 97 23 117 -1z m-1717 -1710 c34 -33 74 -70 89 -82 l28 -21 -41
-26 c-150 -95 -267 -130 -300 -90 -27 33 -2 129 59 234 17 28 31 55 31 58 0 4
7 15 16 24 16 18 17 17 37 -9 11 -15 48 -54 81 -88z"/>
</g>
</svg>
